Coordinates
version=1
nRows=19
nColumns=33
inDegrees=yes

Units are S.I. units (second, meters, Newtons, ...)
Angles are in degrees.

endheader
time	ground_thorax_rot_x	ground_thorax_rot_y	ground_thorax_rot_z	ground_thorax_tx	ground_thorax_ty	ground_thorax_tz	clav_prot_r	clav_elev_r	scapula_abduction_r	scapula_elevation_r	scapula_upward_rot_r	scapula_winging_r	shoulder_elv_r	plane_of_elev_r	axial_rot_r	elbow_flexion_r	pro_sup_r	wrist_flex_r	wrist_dev_r	clav_prot_l	clav_elev_l	scapula_abduction_l	scapula_elevation_l	scapula_upward_rot_l	scapula_winging_l	shoulder_elv_l	plane_of_elev_l	axial_rot_l	elbow_flexion_l	pro_sup_l	wrist_flex_l	wrist_dev_l	
9.2100	-38.484338	-7.598089	8.257155	-83.804185	849.994618	-46.603806	21.575422	-45.000000	35.293690	-45.000000	-36.048936	262.503068	-1905.910642	157.389525	13.878510	1798.565256	164.977170	17.680583	13.841500	1.816683	28.608177	-27.634107	-45.000000	-45.000000	4035.932612	-7100.460241	20.010471	-180.000000	1785.408287	-429.499956	-2.533606	-12.751276	
9.2200	-38.432883	-7.804405	8.435384	-83.168764	849.714402	-46.738680	21.475592	-45.000000	35.287156	-45.000000	-36.179004	262.469623	-1905.897891	157.330326	13.897590	1798.526739	164.730106	17.658152	13.783059	1.803875	28.698589	-27.708727	-45.000000	-45.000000	4035.950150	-7100.550982	19.981188	-180.000000	1785.391687	-429.291559	-2.497756	-12.697761	
9.2300	-38.387729	-7.999371	8.624300	-82.505952	849.433349	-46.876788	21.328475	-45.000000	35.255734	-45.000000	-36.365954	262.384859	-1905.903910	157.218567	13.968338	1798.464620	164.498407	17.609213	13.708639	1.812764	28.865508	-27.811045	-45.000000	-45.000000	4035.987110	-7100.654357	19.956396	-180.000000	1785.348777	-429.056306	-2.447410	-12.630892	
9.2400	-38.348809	-8.176296	8.746625	-81.786065	849.150063	-47.021854	21.286613	-45.000000	35.286665	-45.000000	-36.405397	262.349611	-1905.916455	157.159162	13.937565	1798.417174	164.274251	17.582025	13.684623	1.793734	28.939375	-27.855310	-45.000000	-45.000000	4035.996251	-7100.688622	19.952073	-180.000000	1785.295673	-428.790668	-2.413852	-12.559185	
9.2500	-38.314863	-8.346851	8.836777	-81.003623	848.865175	-47.173930	21.289586	-45.000000	35.351289	-45.000000	-36.372150	262.338198	-1905.932283	157.124612	13.864190	1798.374038	164.061562	17.566862	13.686887	1.758550	28.968325	-27.868851	-45.000000	-45.000000	4035.993324	-7100.683747	19.961409	-180.000000	1785.229114	-428.478901	-2.391986	-12.484755	
9.2600	-38.286065	-8.511508	8.901395	-80.149782	848.579124	-47.333347	21.328768	-45.000000	35.445989	-45.000000	-36.277297	262.335383	-1905.956734	157.100489	13.755472	1798.333651	163.862248	17.553397	13.704779	1.718955	28.977948	-27.868416	-45.000000	-45.000000	4035.983812	-7100.654160	19.979137	-180.000000	1785.150232	-428.109321	-2.371285	-12.401419	
9.2700	-38.262013	-8.668757	8.947844	-79.222939	848.292656	-47.499260	21.379389	-45.000000	35.553154	-45.000000	-36.137452	262.351772	-1905.978859	157.091635	13.627707	1798.299255	163.673866	17.548208	13.733778	1.674808	28.961839	-27.867304	-45.000000	-45.000000	4035.968398	-7100.609003	20.002225	-180.000000	1785.064317	-427.670366	-2.358458	-12.317124	
9.2800	-38.242800	-8.814709	8.983540	-78.225190	848.006239	-47.670250	21.413964	-45.000000	35.658542	-45.000000	-35.975306	262.366703	-1906.005734	157.075076	13.498117	1798.265350	163.496031	17.536789	13.757065	1.651451	28.960939	-27.892409	-45.000000	-45.000000	4035.955713	-7100.573504	20.023002	-180.000000	1784.972277	-427.149457	-2.338834	-12.224261	
9.2900	-38.226293	-8.947137	9.002924	-77.159149	847.719573	-47.844888	21.439274	-45.000000	35.764403	-45.000000	-35.778013	262.399405	-1906.028639	157.068026	13.356904	1798.239813	163.325103	17.528561	13.781451	1.636843	28.947998	-27.933342	-45.000000	-45.000000	4035.937062	-7100.538331	20.044692	-180.000000	1784.877525	-426.536967	-2.320627	-12.127300	
9.3000	-38.218945	-9.029231	8.983341	-76.027532	847.431466	-48.021904	21.424275	-45.000000	35.841110	-45.000000	-35.529086	262.448170	-1906.055954	157.053024	13.204658	1798.221917	163.158267	17.511440	13.798946	1.676413	28.950623	-28.029829	-45.000000	-45.000000	4035.920423	-7100.519114	20.068361	-180.000000	1784.774769	-425.802487	-2.292738	-12.016316	
9.3100	-38.214457	-9.087269	8.939998	-74.832997	847.139959	-48.200308	21.398648	-45.000000	35.909811	-45.000000	-35.239909	262.510831	-1906.082544	157.036829	13.043775	1798.211264	162.994676	17.492599	13.819257	1.725561	28.945408	-28.147632	-45.000000	-45.000000	4035.896443	-7100.504801	20.093230	-180.000000	1784.663031	-424.930019	-2.265550	-11.899572	
9.3200	-38.214981	-9.121874	8.873545	-73.577925	846.842515	-48.379498	21.353552	-45.000000	35.968952	-45.000000	-34.923441	262.588184	-1906.112663	157.020279	12.870726	1798.197125	162.832884	17.470858	13.839686	1.808151	28.947809	-28.290404	-45.000000	-45.000000	4035.870071	-7100.500240	20.117766	-180.000000	1784.540557	-423.907741	-2.236982	-11.775443	
9.3300	-38.220198	-9.127216	8.776163	-72.264645	846.536264	-48.559291	21.279768	-45.000000	36.024866	-45.000000	-34.570440	262.685805	-1906.141903	157.010539	12.679851	1798.182656	162.670202	17.448566	13.862241	1.937530	28.950442	-28.450518	-45.000000	-45.000000	4035.838048	-7100.493158	20.149130	-180.000000	1784.406342	-422.709975	-2.208094	-11.642256	
9.3400	-38.236737	-9.081862	8.635811	-70.895259	846.218130	-48.739922	21.161782	-45.000000	36.054475	-45.000000	-34.179069	262.812972	-1906.173111	157.007585	12.470560	1798.166174	162.502828	17.425701	13.883273	2.150171	28.962130	-28.653081	-45.000000	-45.000000	4035.809180	-7100.491867	20.190896	-180.000000	1784.261347	-421.307867	-2.180109	-11.500885	
9.3500	-38.257835	-9.015514	8.470251	-69.472173	845.884934	-48.921844	21.033125	-45.000000	36.087206	-45.000000	-33.760210	262.949431	-1906.207153	157.005565	12.242805	1798.150127	162.330613	17.400073	13.908161	2.400095	28.973280	-28.865322	-45.000000	-45.000000	4035.775581	-7100.487705	20.239646	-180.000000	1784.107769	-419.691832	-2.153359	-11.353115	
9.3600	-38.282682	-8.937010	8.287227	-67.997816	845.533279	-49.105497	20.897817	-45.000000	36.126066	-45.000000	-33.333618	263.093374	-1906.246083	157.007687	11.997184	1798.126381	162.153652	17.372856	13.938870	2.672596	28.987418	-29.080743	-45.000000	-45.000000	4035.735946	-7100.483187	20.290696	-180.000000	1783.945365	-417.870832	-2.128277	-11.198475	
9.3700	-38.310035	-8.838261	8.075676	-66.475061	845.159517	-49.290935	20.744932	-45.000000	36.178181	-45.000000	-32.873847	263.241138	-1906.290313	157.010699	11.729514	1798.101738	161.970033	17.339674	13.978545	2.952639	28.998402	-29.295976	-45.000000	-45.000000	4035.680223	-7100.472416	20.340423	-180.000000	1783.774357	-415.833656	-2.095417	-11.027887	
9.3800	-38.339634	-8.730681	7.849522	-64.906817	844.759750	-49.477554	20.591384	-45.000000	36.239530	-45.000000	-32.397105	263.389401	-1906.342322	157.012961	11.448895	1798.075006	161.780280	17.300841	14.025752	3.215041	29.005077	-29.508685	-45.000000	-45.000000	4035.609821	-7100.463303	20.383363	-180.000000	1783.599277	-413.589755	-2.055998	-10.844183	
9.3900	-38.368326	-8.636543	7.623439	-63.296396	844.330112	-49.663848	20.461971	-45.000000	36.326685	-45.000000	-31.911803	263.524526	-1906.403383	157.007395	11.158298	1798.047229	161.586229	17.254627	14.082613	3.425684	29.001875	-29.698148	-45.000000	-45.000000	4035.522036	-7100.451793	20.414995	-180.000000	1783.425577	-411.168164	-2.009612	-10.650269	
